<svg xmlns="http://www.w3.org/2000/svg" width="25.624" height="25.624" viewBox="0 0 25.624 25.624"><defs><style>.a{fill:#57a4ff;}.b{fill:#fff;}</style></defs><g transform="translate(-0.007)"><path class="a" d="M31.149,14.2l-3.141-1.4-1.4-3.142-3.418.357L20.41,8l-2.783,2.017-3.417-.357-1.4,3.141L9.671,14.2l.357,3.418L8.012,20.4l2.017,2.783L9.671,26.6,12.812,28l1.4,3.142,3.418-.357L20.41,32.8l2.783-2.017,3.417.357L28.006,28l3.142-1.4-.357-3.418L32.808,20.4,30.791,17.62ZM17.93,25.361l-3.509-3.509,1.17-1.165,2.339,2.335,7.013-7.013,1.17,1.169Zm0,0" transform="translate(-7.591 -7.59)"/><g transform="translate(0.008 0)"><path class="a" d="M25.552,12.57,23.628,9.915l.341-3.26a.413.413,0,0,0-.243-.421l-3-1.333-1.333-3a.416.416,0,0,0-.421-.243L15.716,2,13.062.079a.413.413,0,0,0-.485,0L9.922,2,6.662,1.662a.419.419,0,0,0-.421.243l-1.333,3-3,1.333a.413.413,0,0,0-.243.42L2.01,9.915.086,12.57a.413.413,0,0,0,0,.485L2.01,15.709,1.67,18.97a.413.413,0,0,0,.243.421l3,1.333,1.333,3a.418.418,0,0,0,.421.243l3.261-.341,2.655,1.924a.413.413,0,0,0,.485,0l2.654-1.924,3.261.341a.416.416,0,0,0,.421-.243l1.333-3,3-1.333a.414.414,0,0,0,.243-.42l-.341-3.261,1.924-2.654a.413.413,0,0,0,0-.486Zm-2.686,2.783a.412.412,0,0,0-.076.286l.326,3.119-2.866,1.276a.41.41,0,0,0-.21.209l-1.275,2.866-3.12-.326a.412.412,0,0,0-.285.077L12.819,24.7l-2.54-1.841a.409.409,0,0,0-.242-.079.269.269,0,0,0-.041,0l-3.12.326L5.6,20.242a.413.413,0,0,0-.21-.21L2.523,18.757l.326-3.119a.414.414,0,0,0-.076-.286L.931,12.812l1.841-2.54a.414.414,0,0,0,.076-.286l-.326-3.12L5.389,5.591a.41.41,0,0,0,.21-.209L6.874,2.516l3.12.326a.417.417,0,0,0,.285-.077L12.819.924l2.54,1.841a.415.415,0,0,0,.285.077l3.12-.326,1.275,2.866a.413.413,0,0,0,.21.21l2.866,1.275-.326,3.12a.412.412,0,0,0,.076.286l1.841,2.54Zm0,0" transform="translate(-0.008 0)"/><path class="b" d="M135.287,155.086a.413.413,0,0,0-.584,0l-6.721,6.721-2.047-2.043a.413.413,0,0,0-.584,0l-1.172,1.165a.413.413,0,0,0,0,.585l3.509,3.509a.413.413,0,0,0,.584,0l8.183-8.183a.413.413,0,0,0,0-.584Zm-7.305,9.06-2.924-2.924.584-.583,2.048,2.044a.413.413,0,0,0,.584,0l6.721-6.72.585.585Zm0,0" transform="translate(-117.65 -146.96)"/></g></g></svg>